<svg xmlns="http://www.w3.org/2000/svg" viewBox="0 0 64 64" width="64" height="64">
  <path d="M9.3 31.2h45.3v22.7H9.3V31.2z" fill="#fff"/>
  <path d="M46.2 8.5h11.3c1.6 0 2.8 1.3 2.8 2.8v45.3c0 1.6-1.3 2.8-2.8 2.8h-51c-1.6 0-2.8-1.3-2.8-2.8V11.3c0-1.6 1.3-2.8 2.8-2.8h11.3V2.8h5.7v5.7h17V2.8h5.7v5.7zm8.5 22.7H9.3v22.7h45.3V31.2h.1z" fill="#f43737"/>
  <path d="M15 35.8h5.7v5.7H15v-5.7zm14.2 0h5.7v5.7h-5.7v-5.7zm14.1 0H49v5.7h-5.7v-5.7zm-28.3 9h5.7v5.7H15v-5.7zm14.2 0h5.7v5.7h-5.7v-5.7z" fill="#666"/>
</svg>