<svg xmlns="http://www.w3.org/2000/svg" viewBox="0 0 64 64"  width="64" height="64">
  <path d="M29 8.8C18.4 8.8 9.8 17.4 9.8 28c0 3.2.8 6.3 2.3 9l.8 1.6-1.6 7.1 7.1-1.6 1.6.8c2.8 1.5 5.8 2.3 9 2.3 10.6 0 19.2-8.6 19.2-19.2S39.6 8.8 29 8.8z" fill="#fff"/>
  <path d="M28 3c12.7 0 23 10.3 23 23S40.7 49 28 49c-3.9 0-7.6-1-10.8-2.7L5 49l2.7-12.2C6 33.6 5 29.9 5 26 5 13.3 15.3 3 28 3zm0 4.6C17.8 7.6 9.6 15.8 9.6 26c0 3.1.7 6 2.2 8.7l.8 1.5-1.5 6.8 6.8-1.5 1.5.8c2.6 1.4 5.6 2.2 8.7 2.2 10.2 0 18.4-8.2 18.4-18.4S38.2 7.6 28 7.6z" fill="#666"/>
</svg>