<svg xmlns="http://www.w3.org/2000/svg" viewBox="0 0 512 512" width="64" height="64">
  <path d="M136.219 376.67l98.29 62.93c6.879 4.43 16.176 2.493 20.69-4.49l27.4-42.46-25.19-16.3-19.31 29.93-73.02-46.76 19.54-30.27-25.19-16.3-27.72 42.96c-4.512 6.946-2.485 16.284 4.51 20.76z" fill="#001e49"/>
  <path d="M449.419 361.14c-1.441.877-87.217 86.533-88.28 88.28L60.368 254.808l76.276-125.051 118.164-69.388z" fill="#eef9ff"/>
  <path d="M60.369 254.81l300.77 194.61c.53-.88 22.17-22.65 43.9-44.37l-271-271.01z" fill="#c4eaf5"/>
  <path d="M359.114 443.968l84.853-84.853c5.853-5.854 15.356-5.858 21.213 0l42.426 42.428c5.858 5.857 5.858 15.355 0 21.213l-84.853 84.853c-5.853 5.854-15.356 5.858-21.213 0l-42.426-42.427c-5.858-5.858-5.858-15.356 0-21.214z" fill="#093968"/>
  <path d="M359.109 465.18l42.43 42.43c5.86 5.86 15.36 5.85 21.21 0l42.43-42.42-63.64-63.64-42.43 42.42c-5.85 5.86-5.85 15.35 0 21.21z" fill="#001e49"/>
  <path d="M19.278 19.28c5.857-5.857 15.355-5.857 21.213 0l45.254 45.255c5.858 5.857 5.858 15.355 0 21.213-5.859 5.859-15.355 5.858-21.213 0L19.278 40.493c-5.858-5.858-5.858-15.356 0-21.213z" fill="#fcca62"/>
  <path d="M19.279 40.49l45.25 45.26c5.86 5.86 15.36 5.86 21.22 0l-66.47-66.47c-5.86 5.86-5.86 15.36 0 21.21z" fill="#feb948"/>
  <path d="M98.782 2.013c7.176-4.144 16.348-1.686 20.49 5.49l14.5 25.114c4.142 7.174 1.684 16.348-5.49 20.49-7.143 4.125-16.33 1.716-20.49-5.49l-14.5-25.114c-4.143-7.173-1.685-16.347 5.49-20.49z" fill="#fcca62"/>
  <path d="M2.011 98.785c4.143-7.174 13.314-9.634 20.491-5.49l25.114 14.499c7.174 4.142 9.632 13.315 5.49 20.49-4.155 7.197-13.337 9.621-20.49 5.49L7.502 119.275c-7.174-4.142-9.632-13.316-5.491-20.49z" fill="#feb948"/>
  <path d="M9.099 200.02L200.019 9.1c6.682-6.703 17.956-5.619 23.2 2.45l31.588 48.819L60.368 254.808 11.549 223.22c-8.06-5.239-9.159-16.512-2.45-23.2z" fill="#db543e"/>
  <path d="M11.549 223.22l48.82 31.59 97.22-97.22-53.03-53.03-95.46 95.46c-6.71 6.69-5.61 17.96 2.45 23.2z" fill="#bf2413"/>
</svg>
