<svg xmlns="http://www.w3.org/2000/svg" viewBox="0 0 512 512" width="64" height="64">
  <ellipse cx="123.405" cy="451.045" fill="#f6e266" rx="63.455" ry="27.537" transform="rotate(-72 123.324 451.01)"/>
  <path d="M117.693 442.532c-9.332 28.7-8.452 55.547 1.221 65.454-5.318 3.58-10.529 4.907-15.131 3.404-14.462-4.707-17.397-35.533-6.562-68.858 10.835-33.326 31.342-56.533 45.804-51.838 2.007.657 3.803 1.82 5.353 3.416-11.398 7.677-23.301 25.696-30.685 48.422z" fill="#ffd064"/>
  <ellipse cx="388.595" cy="451.045" fill="#f6e266" rx="27.537" ry="63.455" transform="rotate(-18.01 388.831 451.39)"/>
  <path d="M415.248 505.967c-1.914 2.653-4.261 4.519-7.031 5.423-14.474 4.707-34.981-18.5-45.816-51.826-10.835-33.337-7.9-64.163 6.562-68.87 3.792-1.233 8.006-.54 12.349 1.749-8.064 11.199-8.311 36.495.446 63.435 8.006 24.593 21.27 43.668 33.49 50.089z" fill="#ffd064"/>
  <circle cx="482.164" cy="21.356" fill="#e7a561" r="21.352"/>
  <circle cx="29.836" cy="21.356" fill="#e7a561" r="21.352"/>
  <circle cx="418.973" cy="84.547" fill="#f6e266" r="84.543"/>
  <path d="M491.905 41.77c-12.548-7.384-27.163-11.61-42.775-11.61-46.696 0-84.553 37.845-84.553 84.541 0 15.612 4.226 30.227 11.61 42.776-24.98-14.685-41.754-41.848-41.754-72.92 0-46.696 37.857-84.553 84.541-84.553 31.083 0 58.246 16.775 72.931 41.766z" fill="#ffd064"/>
  <circle cx="93.027" cy="84.547" fill="#f6e266" r="84.543"/>
  <path d="M111.794 167.004a85.306 85.306 0 01-18.77 2.09c-46.696 0-84.541-37.857-84.541-84.541C8.484 37.857 46.329 0 93.025 0a85.38 85.38 0 0118.77 2.089c-37.657 8.534-65.783 42.212-65.783 82.463 0 40.241 28.125 73.919 65.782 82.452z" fill="#ffd064"/>
  <circle cx="256" cy="247.52" fill="#B46BC2" r="230.479"/>
  <circle cx="256" cy="247.52" fill="#d3effb" r="176.153"/>
  <path d="M286.779 421.121a175.734 175.734 0 01-30.026 2.558c-97.287 0-176.159-78.871-176.159-176.159S159.466 71.362 256.753 71.362c10.233 0 20.271.868 30.026 2.558-82.97 14.242-146.118 86.546-146.118 173.6s63.148 159.358 146.118 173.601z" fill="#888" opacity=".25"/>
  <path d="M256 269.961h-81.84c-12.393 0-22.441-10.047-22.441-22.441s10.047-22.441 22.441-22.441H256c12.393 0 22.441 10.047 22.441 22.441S268.393 269.961 256 269.961z" fill="#365e7d"/>
  <path d="M256 269.961c-12.393 0-22.441-10.047-22.441-22.441v-57.3c0-12.393 10.047-22.441 22.441-22.441 12.393 0 22.441 10.047 22.441 22.441v57.3c-.001 12.394-10.048 22.441-22.441 22.441z" fill="#2b4d66"/>
  <g fill="#365e7d">
    <path d="M256 119.356a7.725 7.725 0 01-7.726-7.726V75.907a7.726 7.726 0 1115.452 0v35.722a7.726 7.726 0 01-7.726 7.727zM256 426.86a7.725 7.725 0 01-7.726-7.726v-35.722a7.726 7.726 0 1115.452 0v35.722A7.725 7.725 0 01256 426.86zM427.614 255.247h-35.722a7.726 7.726 0 110-15.452h35.722a7.726 7.726 0 110 15.452zM120.109 255.247H84.386a7.726 7.726 0 110-15.452h35.722c4.268 0 7.726 3.459 7.726 7.726s-3.458 7.726-7.725 7.726zM386.368 179.984a7.722 7.722 0 01-6.698-3.865 7.726 7.726 0 012.828-10.554l18.261-10.542a7.725 7.725 0 0110.554 2.828 7.726 7.726 0 01-2.828 10.554l-18.261 10.542a7.684 7.684 0 01-3.856 1.037zM107.385 341.055a7.722 7.722 0 01-6.698-3.865 7.726 7.726 0 012.828-10.554l18.261-10.543a7.725 7.725 0 0110.554 2.828 7.726 7.726 0 01-2.828 10.554l-18.261 10.543a7.684 7.684 0 01-3.856 1.037z"/>
    <g>
      <path d="M331.258 124.887a7.687 7.687 0 01-3.856-1.037 7.726 7.726 0 01-2.828-10.554l10.542-18.26a7.724 7.724 0 0110.554-2.828 7.726 7.726 0 012.828 10.554l-10.542 18.26a7.725 7.725 0 01-6.698 3.865zM170.186 403.87a7.687 7.687 0 01-3.856-1.037 7.726 7.726 0 01-2.828-10.554l10.542-18.261a7.724 7.724 0 0110.554-2.828 7.726 7.726 0 012.828 10.554l-10.542 18.261a7.722 7.722 0 01-6.698 3.865z"/>
    </g>
    <g>
      <path d="M180.742 124.887a7.722 7.722 0 01-6.698-3.865l-10.542-18.26a7.726 7.726 0 012.828-10.554 7.725 7.725 0 0110.554 2.828l10.542 18.26a7.726 7.726 0 01-2.828 10.554 7.684 7.684 0 01-3.856 1.037zM341.814 403.87a7.722 7.722 0 01-6.698-3.865l-10.542-18.261a7.726 7.726 0 012.828-10.554 7.725 7.725 0 0110.554 2.828l10.542 18.261a7.726 7.726 0 01-2.828 10.554 7.684 7.684 0 01-3.856 1.037z"/>
    </g>
    <g>
      <path d="M125.632 179.984a7.687 7.687 0 01-3.856-1.037l-18.261-10.542a7.726 7.726 0 01-2.828-10.554 7.725 7.725 0 0110.554-2.828l18.261 10.542a7.726 7.726 0 01-3.87 14.419zM404.615 341.055a7.687 7.687 0 01-3.856-1.037l-18.261-10.543a7.726 7.726 0 01-2.828-10.554 7.724 7.724 0 0110.554-2.828l18.261 10.543a7.726 7.726 0 01-3.87 14.419z"/>
    </g>
  </g>
  <path d="M256 431.4c-101.391 0-183.879-82.488-183.879-183.879S154.609 63.641 256 63.641s183.879 82.488 183.879 183.879S357.391 431.4 256 431.4zm0-352.306c-92.87 0-168.427 75.556-168.427 168.427S163.13 415.947 256 415.947s168.427-75.556 168.427-168.427S348.87 79.094 256 79.094z" fill="#9D5AB5"/>
</svg>
