<svg viewBox="0 0 510 510" xmlns="http://www.w3.org/2000/svg" width="64" height="64">
  <path d="M298.83 358.22V500c0 5.523-4.477 10-10 10h-67.66c-5.523 0-10-4.477-10-10V358.22z" fill="#9d5c4b"/>
  <path d="M298.83 358.22V500c0 5.523-4.477 10-10 10H255V358.22z" fill="#6a3527"/>
  <path d="M510 243.55v156.8c0 8.28-6.72 15-15 15H120.18V123.37h269.64c66.37 0 120.18 53.81 120.18 120.18z" fill="#db2556"/>
  <path d="M240.37 243.55v171.8H15c-8.28 0-15-6.72-15-15v-156.8c0-66.37 53.81-120.18 120.18-120.18 66.381 0 120.19 53.8 120.19 120.18z" fill="#ffcf5e"/>
  <path d="M240.37 243.55v171.8H120.18V123.37c66.381 0 120.19 53.8 120.19 120.18z" fill="#ffb033"/>
  <path d="M187.93 250.6c0 8.28-6.72 15-15 15H67.43c-8.28 0-15-6.72-15-15 0-8.29 6.72-15 15-15h105.5c8.28 0 15 6.71 15 15z" fill="#9d5c4b"/>
  <path d="M187.93 250.6c0 8.28-6.72 15-15 15h-52.75v-30h52.75c8.28 0 15 6.71 15 15z" fill="#6a3527"/>
  <path d="M501.64 15v41.07c0 8.28-6.72 15-15 15h-92.73c-5.52 0-10 4.47-10 10v164.6h-30V15c0-8.28 6.72-15 15-15h117.73c8.28 0 15 6.72 15 15z" fill="#ffb033"/>
  <path d="M422.95 275.26c0 29.75-24.16 53.96-53.9 54.04h-.14c-29.79 0-54.03-24.24-54.03-54.04 0-29.79 24.24-54.03 54.03-54.03h.14c29.74.08 53.9 24.29 53.9 54.03z" fill="#fff"/>
  <path d="M422.95 275.26c0 29.75-24.16 53.96-53.9 54.04V221.23c29.74.08 53.9 24.29 53.9 54.03z" fill="#dcf2ea"/>
  <path d="M392.95 275.26c0 13.21-10.7 23.96-23.9 24.04h-.14c-13.25 0-24.03-10.78-24.03-24.04 0-13.25 10.78-24.03 24.03-24.03h.14c13.2.08 23.9 10.83 23.9 24.03z" fill="#9d5c4b"/>
  <path d="M392.95 275.26c0 13.21-10.7 23.96-23.9 24.04v-48.07c13.2.08 23.9 10.83 23.9 24.03z" fill="#6a3527"/>
</svg>
