<svg xmlns="http://www.w3.org/2000/svg" viewBox="0 0 64 64" width="64" height="64">
  <path fill="#888" d="M34.8 39v17.8c0 .7-.4 1.3-1 1.3h-6.4c-.5 0-1-.6-1-1.3V39h8.4z" />
  <path fill="#666" d="M64 24.6v19.7c0 1-.8 1.9-1.9 1.9h-47V9.5h33.8c8.3 0 15.1 6.7 15.1 15.1z"/>
  <path fill="#fff" d="M30.2 24.6v21.6H1.9c-1 0-1.9-.8-1.9-1.9V24.6C0 16.2 6.8 9.5 15.1 9.5s15.1 6.7 15.1 15.1z" />
  <path fill="#666" d="M23.6 25.4c0 1-.8 1.9-1.9 1.9H8.5c-1 0-1.9-.8-1.9-1.9 0-1 .8-1.9 1.9-1.9h13.2c1 .1 1.9.9 1.9 1.9z"/>
</svg>